<svg width="1789" height="1035" viewBox="0 0 1789 1035" fill="none" xmlns="http://www.w3.org/2000/svg">
<path d="M130 301V145H449V399H374.5V532H268V548H297V587.5H312.5V548L417 548.5V532.5H391V414.5H521.5V532.5H464.5V548.5H602.5V532.5H537.5V414.5H668V533H651.5V549H701V533H685V414.5H712V399H465V145H630V51L674 3H743.5L787.5 51V145.5H821V399H760V414.5H1047V399H836.5V145.5H1135.5V400.5H1095V415H1196V400.5H1152V145.5H1407L1495.5 202L1345.5 447.5L1263.5 400.5H1244V415H1263.5L1517.5 567L1669.5 316.5L1756 365L1785 520.5L1708 651.5L1552 698L1263.5 533H778V549H1261.5L1494.5 685.5L1293 1004.5H842V676H585V692.5H638V1004.5H130V692H509V676H312.5V636H297V676H130V548H191.5V532H130V440.5V377H113.5V399H3V281.5H113.5V301H130Z" stroke="#7350D7" stroke-width="6"/>
<path d="M111 548H6V660H111V548Z" stroke="#C4C4C4" stroke-width="6"/>
<path d="M826 858H654V961H826V858Z" fill="#C4C4C4" fill-opacity="0.31"/>
<path d="M1657.8 300.52L1510.76 211.284L1449 313.053L1596.04 402.289L1657.8 300.52Z" fill="#C4C4C4" fill-opacity="0.31"/>
<path d="M113.5 402.5H3.5V413.5H113.5V402.5Z" fill="#C4C4C4" fill-opacity="0.95" stroke="white"/>
<path d="M113.5 414.5H3.5V425.5H113.5V414.5Z" fill="#C4C4C4" fill-opacity="0.92" stroke="white"/>
<path d="M113.5 426.5H3.5V437.5H113.5V426.5Z" fill="#C4C4C4" fill-opacity="0.84" stroke="white"/>
<path d="M113.5 438.5H3.5V449.5H113.5V438.5Z" fill="#C4C4C4" fill-opacity="0.76" stroke="white"/>
<path d="M113.5 450.5H3.5V461.5H113.5V450.5Z" fill="#C4C4C4" fill-opacity="0.68" stroke="white"/>
<path d="M113.5 462.5H3.5V473.5H113.5V462.5Z" fill="#C4C4C4" fill-opacity="0.6" stroke="white"/>
<path d="M113.5 474.5H3.5V485.5H113.5V474.5Z" fill="#C4C4C4" fill-opacity="0.52" stroke="white"/>
<path d="M113.5 486.5H3.5V497.5H113.5V486.5Z" fill="#C4C4C4" fill-opacity="0.44" stroke="white"/>
<path d="M113.5 498.5H3.5V509.5H113.5V498.5Z" fill="#C4C4C4" fill-opacity="0.36" stroke="white"/>
<path d="M113.5 510.5H3.5V521.5H113.5V510.5Z" fill="#C4C4C4" fill-opacity="0.26" stroke="white"/>
<path d="M113.5 522.5H3.5V533.5H113.5V522.5Z" fill="#C4C4C4" fill-opacity="0.18" stroke="white"/>
<path d="M113.5 534.5H3.5V545.5H113.5V534.5Z" fill="#C4C4C4" fill-opacity="0.1" stroke="white"/>
<path d="M113.5 664.5H3.5V675.5H113.5V664.5Z" fill="#C4C4C4" fill-opacity="0.95" stroke="white"/>
<path d="M113.5 676.5H3.5V687.5H113.5V676.5Z" fill="#C4C4C4" fill-opacity="0.92" stroke="white"/>
<path d="M113.5 688.5H3.5V699.5H113.5V688.5Z" fill="#C4C4C4" fill-opacity="0.84" stroke="white"/>
<path d="M113.5 700.5H3.5V711.5H113.5V700.5Z" fill="#C4C4C4" fill-opacity="0.76" stroke="white"/>
<path d="M113.5 712.5H3.5V723.5H113.5V712.5Z" fill="#C4C4C4" fill-opacity="0.68" stroke="white"/>
<path d="M113.5 724.5H3.5V735.5H113.5V724.5Z" fill="#C4C4C4" fill-opacity="0.6" stroke="white"/>
<path d="M113.5 736.5H3.5V747.5H113.5V736.5Z" fill="#C4C4C4" fill-opacity="0.52" stroke="white"/>
<path d="M113.5 748.5H3.5V759.5H113.5V748.5Z" fill="#C4C4C4" fill-opacity="0.44" stroke="white"/>
<path d="M113.5 760.5H3.5V771.5H113.5V760.5Z" fill="#C4C4C4" fill-opacity="0.36" stroke="white"/>
<path d="M113.5 772.5H3.5V783.5H113.5V772.5Z" fill="#C4C4C4" fill-opacity="0.26" stroke="white"/>
<path d="M113.5 784.5H3.5V795.5H113.5V784.5Z" fill="#C4C4C4" fill-opacity="0.18" stroke="white"/>
<path d="M113.5 796.5H3.5V807.5H113.5V796.5Z" fill="#C4C4C4" fill-opacity="0.1" stroke="white"/>
<path d="M739.5 680.5H654.5V694.417H739.5V680.5Z" fill="#C4C4C4" fill-opacity="0.95" stroke="white"/>
<path d="M739.5 695.417H654.5V709.334H739.5V695.417Z" fill="#C4C4C4" fill-opacity="0.92" stroke="white"/>
<path d="M739.5 710.333H654.5V724.25H739.5V710.333Z" fill="#C4C4C4" fill-opacity="0.84" stroke="white"/>
<path d="M739.5 725.25H654.5V739.167H739.5V725.25Z" fill="#C4C4C4" fill-opacity="0.76" stroke="white"/>
<path d="M739.5 740.167H654.5V754.084H739.5V740.167Z" fill="#C4C4C4" fill-opacity="0.68" stroke="white"/>
<path d="M739.5 755.083H654.5V769H739.5V755.083Z" fill="#C4C4C4" fill-opacity="0.6" stroke="white"/>
<path d="M739.5 770H654.5V783.917H739.5V770Z" fill="#C4C4C4" fill-opacity="0.52" stroke="white"/>
<path d="M739.5 784.917H654.5V798.834H739.5V784.917Z" fill="#C4C4C4" fill-opacity="0.44" stroke="white"/>
<path d="M739.5 799.833H654.5V813.75H739.5V799.833Z" fill="#C4C4C4" fill-opacity="0.36" stroke="white"/>
<path d="M739.5 814.75H654.5V828.667H739.5V814.75Z" fill="#C4C4C4" fill-opacity="0.26" stroke="white"/>
<path d="M739.5 829.667H654.5V843.584H739.5V829.667Z" fill="#C4C4C4" fill-opacity="0.18" stroke="white"/>
<path d="M739.5 844.583H654.5V858.5H739.5V844.583Z" fill="#C4C4C4" fill-opacity="0.1" stroke="white"/>
<path d="M1596.25 400.038L1522.64 357.538L1515.68 369.59L1589.29 412.09L1596.25 400.038Z" fill="#C4C4C4" fill-opacity="0.95" stroke="white"/>
<path d="M1588.79 412.956L1515.18 370.456L1508.22 382.508L1581.83 425.008L1588.79 412.956Z" fill="#C4C4C4" fill-opacity="0.92" stroke="white"/>
<path d="M1581.33 425.875L1507.72 383.375L1500.76 395.427L1574.37 437.927L1581.33 425.875Z" fill="#C4C4C4" fill-opacity="0.84" stroke="white"/>
<path d="M1573.87 438.793L1500.26 396.293L1493.3 408.345L1566.91 450.845L1573.87 438.793Z" fill="#C4C4C4" fill-opacity="0.76" stroke="white"/>
<path d="M1566.42 451.711L1492.81 409.211L1485.85 421.263L1559.46 463.763L1566.42 451.711Z" fill="#C4C4C4" fill-opacity="0.68" stroke="white"/>
<path d="M1558.96 464.629L1485.35 422.129L1478.39 434.181L1552 476.681L1558.96 464.629Z" fill="#C4C4C4" fill-opacity="0.6" stroke="white"/>
<path d="M1551.5 477.548L1477.89 435.048L1470.93 447.1L1544.54 489.6L1551.5 477.548Z" fill="#C4C4C4" fill-opacity="0.52" stroke="white"/>
<path d="M1544.04 490.466L1470.43 447.966L1463.47 460.018L1537.08 502.518L1544.04 490.466Z" fill="#C4C4C4" fill-opacity="0.44" stroke="white"/>
<path d="M1536.58 503.384L1462.97 460.884L1456.01 472.936L1529.62 515.436L1536.58 503.384Z" fill="#C4C4C4" fill-opacity="0.36" stroke="white"/>
<path d="M1529.12 516.302L1455.51 473.802L1448.55 485.854L1522.16 528.354L1529.12 516.302Z" fill="#C4C4C4" fill-opacity="0.26" stroke="white"/>
<path d="M1521.67 529.22L1448.06 486.72L1441.1 498.772L1514.71 541.272L1521.67 529.22Z" fill="#C4C4C4" fill-opacity="0.18" stroke="white"/>
<path d="M1514.21 542.139L1440.6 499.639L1433.64 511.691L1507.25 554.191L1514.21 542.139Z" fill="#C4C4C4" fill-opacity="0.1" stroke="white"/>
<path d="M1357.68 465.276L1430.55 509.043L1437.72 497.113L1364.85 453.346L1357.68 465.276Z" fill="#C4C4C4" fill-opacity="0.95" stroke="white"/>
<path d="M1365.36 452.489L1438.23 496.256L1445.4 484.326L1372.53 440.559L1365.36 452.489Z" fill="#C4C4C4" fill-opacity="0.92" stroke="white"/>
<path d="M1373.04 439.701L1445.91 483.468L1453.08 471.538L1380.21 427.771L1373.04 439.701Z" fill="#C4C4C4" fill-opacity="0.84" stroke="white"/>
<path d="M1380.72 426.914L1453.59 470.681L1460.76 458.751L1387.89 414.984L1380.72 426.914Z" fill="#C4C4C4" fill-opacity="0.76" stroke="white"/>
<path d="M1388.4 414.127L1461.27 457.894L1468.44 445.964L1395.57 402.197L1388.4 414.127Z" fill="#C4C4C4" fill-opacity="0.68" stroke="white"/>
<path d="M1396.09 401.34L1468.96 445.107L1476.13 433.177L1403.26 389.41L1396.09 401.34Z" fill="#C4C4C4" fill-opacity="0.6" stroke="white"/>
<path d="M1403.77 388.552L1476.64 432.319L1483.81 420.389L1410.94 376.622L1403.77 388.552Z" fill="#C4C4C4" fill-opacity="0.52" stroke="white"/>
<path d="M1411.45 375.765L1484.32 419.532L1491.49 407.602L1418.62 363.835L1411.45 375.765Z" fill="#C4C4C4" fill-opacity="0.44" stroke="white"/>
<path d="M1419.13 362.978L1492 406.745L1499.17 394.815L1426.3 351.048L1419.13 362.978Z" fill="#C4C4C4" fill-opacity="0.36" stroke="white"/>
<path d="M1426.81 350.19L1499.68 393.957L1506.85 382.027L1433.98 338.26L1426.81 350.19Z" fill="#C4C4C4" fill-opacity="0.26" stroke="white"/>
<path d="M1434.49 337.403L1507.36 381.17L1514.53 369.24L1441.66 325.473L1434.49 337.403Z" fill="#C4C4C4" fill-opacity="0.18" stroke="white"/>
<path d="M1442.17 324.616L1515.04 368.383L1522.21 356.453L1449.34 312.686L1442.17 324.616Z" fill="#C4C4C4" fill-opacity="0.1" stroke="white"/>
<path d="M740.5 858.5H825.5V844.583H740.5V858.5Z" fill="#C4C4C4" fill-opacity="0.95" stroke="white"/>
<path d="M740.5 843.583H825.5V829.666H740.5V843.583Z" fill="#C4C4C4" fill-opacity="0.92" stroke="white"/>
<path d="M740.5 828.667H825.5V814.75H740.5V828.667Z" fill="#C4C4C4" fill-opacity="0.84" stroke="white"/>
<path d="M740.5 813.75H825.5V799.833H740.5V813.75Z" fill="#C4C4C4" fill-opacity="0.76" stroke="white"/>
<path d="M740.5 798.833H825.5V784.916H740.5V798.833Z" fill="#C4C4C4" fill-opacity="0.68" stroke="white"/>
<path d="M740.5 783.917H825.5V770H740.5V783.917Z" fill="#C4C4C4" fill-opacity="0.6" stroke="white"/>
<path d="M740.5 769H825.5V755.083H740.5V769Z" fill="#C4C4C4" fill-opacity="0.52" stroke="white"/>
<path d="M740.5 754.083H825.5V740.166H740.5V754.083Z" fill="#C4C4C4" fill-opacity="0.44" stroke="white"/>
<path d="M740.5 739.167H825.5V725.25H740.5V739.167Z" fill="#C4C4C4" fill-opacity="0.36" stroke="white"/>
<path d="M740.5 724.25H825.5V710.333H740.5V724.25Z" fill="#C4C4C4" fill-opacity="0.26" stroke="white"/>
<path d="M740.5 709.333H825.5V695.416H740.5V709.333Z" fill="#C4C4C4" fill-opacity="0.18" stroke="white"/>
<path d="M740.5 694.417H825.5V680.5H740.5V694.417Z" fill="#C4C4C4" fill-opacity="0.1" stroke="white"/>
<path d="M244 142H178V145H244V142Z" fill="white"/>
<path d="M941 142H875V145H941V142Z" fill="white"/>
<path d="M400 142H334V145H400V142Z" fill="white"/>
<path d="M1097 142H1031V145H1097V142Z" fill="white"/>
<path d="M1310 142H1244V145H1310V142Z" fill="white"/>
<path d="M1781.03 483.329L1762.92 386L1759.97 386.549L1778.08 483.878L1781.03 483.329Z" fill="white"/>
<path d="M1727.32 625.877L1777.49 540.534L1774.9 539.014L1724.73 624.357L1727.32 625.877Z" fill="white"/>
<path d="M1579.43 693.049L1674.31 664.792L1673.45 661.917L1578.57 690.174L1579.43 693.049Z" fill="white"/>
<path d="M773 1030H707V1035H773V1030Z" fill="white"/>
<path d="M1157 1005H1091V1008H1157V1005Z" fill="white"/>
<path d="M417 1005H351V1008H417V1005Z" fill="white"/>
<path d="M130 642V576H127V642H130Z" fill="white"/>
<path d="M130 504V438H127V504H130Z" fill="white"/>
<path d="M730 0H690V3H730V0Z" fill="white"/>
<path d="M663.242 9.74441L639.162 36.1348L641.714 37.7114L665.794 11.321L663.242 9.74441Z" fill="white"/>
<path d="M752.108 11.0244L776.368 37.3027L778.912 35.7127L754.652 9.43439L752.108 11.0244Z" fill="white"/>
</svg>
